<?xml version="1.0" standalone="no"?>
<!DOCTYPE svg PUBLIC "-//W3C//DTD SVG 1.1//EN" "http://www.w3.org/Graphics/SVG/1.1/DTD/svg11.dtd" >
<svg xmlns="http://www.w3.org/2000/svg">
<metadata>Generated by IcoMoon</metadata>
<defs>
<font id="icomoon" horiz-adv-x="1024">
<font-face units-per-em="1024" ascent="960" descent="-64" />
<missing-glyph horiz-adv-x="1024" />
<glyph unicode="&#x20;" horiz-adv-x="512" d="" />
<glyph unicode="&#xe900;" glyph-name="certification" horiz-adv-x="669" d="M394.581 194.048l98.304 98.304c2.731 2.731 5.461 2.731 8.192 0l17.749-17.749c2.731-2.731 2.731-5.461 0-8.192l-72.363-70.997-51.883-1.365zM394.581 194.048l-40.96 40.96c-1.365 1.365-1.365 5.461 0 8.192l17.749 17.749c1.365 1.365 5.461 1.365 8.192 0l65.536-65.536h-50.517zM460.117 749.739c1.365 79.189 1.365 126.976 1.365 155.648 35.499-35.499 99.669-99.669 155.648-155.648h-157.013zM669.013 736.085c0 1.365 0 2.731-1.365 4.096 0 0 0 1.365-1.365 1.365-1.365 1.365-1.365 4.096-2.731 4.096 0 0-51.883 51.883-103.765 103.765-25.941 25.941-51.883 51.883-70.997 70.997-15.019 15.019-24.576 24.576-31.403 30.037 0 0 0 0 0 1.365v0 0c-9.557 8.192-12.288 9.557-17.749 6.827h-391.851c-25.941 0-47.787-21.845-47.787-46.421v-765.952c0-12.288 5.461-25.941 15.019-35.499s21.845-15.019 34.133-15.019h199.339c8.192 0 15.019 6.827 15.019 15.019s-6.827 16.384-16.384 16.384h-199.339c-5.461 0-9.557 1.365-13.653 5.461s-5.461 8.192-5.461 13.653v765.952c0 9.557 8.192 16.384 16.384 16.384h386.389c1.365-34.133 0-129.707-1.365-192.512 0-4.096 1.365-8.192 4.096-10.923s6.827-4.096 10.923-4.096h193.877v-577.536c0-4.096-1.365-8.192-5.461-12.288s-6.827-5.461-10.923-5.461h-6.827c-8.192 0-15.019-6.827-15.019-15.019s6.827-15.019 15.019-15.019h6.827c12.288 0 24.576 5.461 32.768 13.653s13.653 20.48 13.653 32.768v593.92c0 0 0 0 0 0zM531.115 20.651c-6.827 4.096-15.019 1.365-19.115-5.461l-20.48-30.037-32.768 122.88c24.576 4.096 47.787 15.019 66.901 28.672l38.229-132.437-32.768 16.384zM380.928-14.848l-21.845 31.403c-4.096 5.461-12.288 8.192-19.115 5.461l-32.768-15.019 38.229 128.341c19.115-13.653 42.325-23.211 68.267-25.941l-32.768-124.245zM432.811 381.099c68.267 0 122.88-54.613 122.88-122.88s-54.613-122.88-122.88-122.88-122.88 54.613-122.88 122.88c0 68.267 54.613 122.88 122.88 122.88zM552.96 155.819c-1.365 1.365-1.365 4.096-2.731 5.461 21.845 25.941 35.499 60.075 35.499 96.939 0 84.651-68.267 151.552-151.552 151.552s-151.552-68.267-151.552-151.552c0-38.229 15.019-75.093 38.229-101.035l-51.883-174.763c-1.365-5.461 0-12.288 4.096-15.019 4.096-4.096 10.923-4.096 16.384-1.365l51.883 24.576 32.768-47.787c2.731-4.096 8.192-6.827 12.288-6.827 1.365 0 1.365 0 2.731 0 5.461 1.365 10.923 5.461 12.288 10.923l35.499 129.707 35.499-129.707c1.365-5.461 5.461-10.923 12.288-10.923 1.365 0 1.365 0 2.731 0 5.461 0 9.557 2.731 12.288 6.827l32.768 46.421 51.883-24.576c5.461-2.731 12.288-1.365 16.384 2.731s5.461 10.923 4.096 15.019l-51.883 173.397z" />
<glyph unicode="&#xe901;" glyph-name="check-lists" d="M790.528-28.501c-50.517 0-96.939 19.115-132.437 50.517-4.096 4.096-8.192 8.192-12.288 12.288-1.365 1.365-1.365 1.365-2.731 2.731-4.096 4.096-8.192 8.192-10.923 12.288-1.365 1.365-1.365 1.365-2.731 4.096-4.096 4.096-6.827 9.557-9.557 15.019-1.365 1.365-1.365 1.365-1.365 2.731-2.731 5.461-5.461 10.923-8.192 15.019 0 1.365-1.365 1.365-1.365 2.731-2.731 5.461-4.096 10.923-6.827 17.749 0 1.365-1.365 1.365-1.365 1.365-1.365 5.461-4.096 12.288-5.461 17.749 0 1.365 0 1.365-1.365 1.365-1.365 5.461-2.731 12.288-2.731 17.749 0 1.365 0 1.365 0 2.731-1.365 6.827-1.365 13.653-1.365 20.48 0 109.227 88.747 197.973 197.973 197.973 6.827 0 13.653 0 20.48-1.365 1.365 0 1.365 0 2.731 0 5.461-1.365 12.288-1.365 17.749-2.731 1.365 0 1.365 0 1.365-1.365 5.461-1.365 12.288-2.731 17.749-5.461 1.365 0 1.365-1.365 1.365-1.365 5.461-1.365 10.923-4.096 17.749-6.827 1.365 0 1.365-1.365 2.731-1.365 5.461-2.731 10.923-5.461 15.019-8.192 1.365-1.365 1.365-1.365 2.731-1.365 5.461-2.731 9.557-5.461 15.019-9.557 1.365-1.365 1.365-1.365 2.731-2.731 4.096-4.096 8.192-6.827 12.288-10.923 1.365-1.365 1.365-1.365 2.731-2.731 4.096-4.096 8.192-8.192 12.288-12.288 31.403-35.499 50.517-81.92 50.517-132.437 5.461-105.131-83.285-193.877-192.512-193.877zM218.453 24.747c-101.035 0-182.955 81.92-182.955 182.955v532.48c0 101.035 81.92 182.955 182.955 182.955h532.48c101.035 0 182.955-81.92 182.955-182.955v-387.755c-1.365 1.365-2.731 1.365-4.096 2.731-4.096 2.731-8.192 5.461-10.923 8.192l-1.365 1.365c-9.557 5.461-19.115 10.923-28.672 16.384-1.365 1.365-2.731 1.365-4.096 1.365-4.096 1.365-8.192 4.096-12.288 5.461-2.731 1.365-5.461 1.365-8.192 2.731-4.096 1.365-8.192 2.731-10.923 4.096-4.096 1.365-6.827 1.365-9.557 2.731-4.096 1.365-6.827 1.365-10.923 2.731-4.096 0-8.192 0-12.288 0-2.731 0-5.461 1.365-8.192 1.365-6.827 1.365-15.019 1.365-21.845 1.365-110.592 0-202.069-77.824-226.645-180.224h-77.824c-10.923 0-17.749-8.192-17.749-17.749 0-10.923 8.192-17.749 17.749-17.749h72.363c-1.365-5.461-1.365-12.288-1.365-17.749 0-6.827 1.365-15.019 1.365-21.845 0-2.731 1.365-5.461 1.365-8.192 1.365-4.096 1.365-8.192 1.365-12.288 1.365-4.096 1.365-6.827 2.731-10.923s1.365-5.461 2.731-9.557c1.365-4.096 2.731-8.192 4.096-10.923s1.365-5.461 2.731-8.192c1.365-4.096 4.096-8.192 5.461-12.288 1.365-1.365 1.365-2.731 1.365-4.096 5.461-10.923 10.923-20.48 16.384-30.037 0 0 0-1.365 1.365-1.365 2.731-4.096 5.461-8.192 8.192-10.923 1.365-1.365 1.365-2.731 2.731-4.096h-390.485zM970.752 318.293v423.253c0 121.515-98.304 218.453-218.453 218.453h-533.845c-120.149 0-218.453-98.304-218.453-218.453v-532.48c0-121.515 98.304-218.453 218.453-218.453h423.253c40.96-32.768 92.843-54.613 148.821-54.613 128.341 0 233.472 105.131 233.472 233.472 0 55.979-19.115 107.861-53.248 148.821zM486.059 707.413h323.584c10.923 0 17.749 8.192 17.749 17.749s-8.192 17.749-17.749 17.749h-323.584c-10.923 0-17.749-8.192-17.749-17.749s6.827-17.749 17.749-17.749zM486.059 456.192h323.584c10.923 0 17.749 8.192 17.749 17.749s-8.192 17.749-17.749 17.749h-323.584c-10.923 0-17.749-8.192-17.749-17.749s6.827-17.749 17.749-17.749zM738.645 88.917l13.653 12.288 128.341 128.341c4.096 4.096 8.192 4.096 12.288-1.365l25.941-24.576c4.096-4.096 4.096-8.192 0-12.288l-105.131-105.131-75.093 2.731zM738.645 88.917l-58.709 58.709c-2.731 2.731-4.096 9.557 1.365 12.288l25.941 25.941c4.096 4.096 8.192 2.731 10.923-1.365l95.573-95.573c0 0-75.093 0-75.093 0zM195.243 402.944l13.653 12.288 128.341 128.341c4.096 4.096 8.192 4.096 12.288-1.365l25.941-24.576c4.096-4.096 4.096-8.192 0-12.288l-105.131-105.131-75.093 2.731zM195.243 401.579l-58.709 58.709c-2.731 2.731-4.096 9.557 1.365 12.288l25.941 25.941c4.096 4.096 8.192 2.731 10.923-1.365l95.573-95.573h-75.093zM195.243 654.165l13.653 12.288 128.341 128.341c4.096 4.096 8.192 4.096 12.288-1.365l25.941-24.576c4.096-4.096 4.096-8.192 0-12.288l-105.131-105.131-75.093 2.731zM195.243 654.165l-58.709 58.709c-2.731 2.731-4.096 9.557 1.365 12.288l25.941 25.941c4.096 4.096 8.192 2.731 10.923-1.365l95.573-95.573h-75.093zM195.243 144.896l13.653 12.288 128.341 128.341c4.096 4.096 8.192 4.096 12.288-1.365l25.941-24.576c4.096-4.096 4.096-8.192 0-12.288l-105.131-103.765h-75.093zM195.243 144.896l-58.709 58.709c-2.731 2.731-4.096 9.557 1.365 12.288l25.941 25.941c4.096 4.096 8.192 2.731 10.923-1.365l95.573-95.573h-75.093z" />
<glyph unicode="&#xe902;" glyph-name="communication" d="M897.57 857.6v-57.754l-771.14-171.349v36.318h-95.573v-385.434h95.573v36.318l48.196-10.786v-170.121c0.077-22.484 15.451-41.356 36.254-46.757l0.337-0.074 192.649-48.196c3.49-0.868 7.496-1.365 11.618-1.365 0.044 0 0.087 0 0.131 0h-0.007c0.030 0 0.066 0 0.102 0 15.661 0 29.567 7.512 38.312 19.129l0.088 0.122 119.33 158.788 324.403-72.090v-58.163h96.256v771.413zM395.947 140.8l-125.201 31.266v111.411l198.929-44.1zM126.43 413.867v115.917l771.14 170.803v-457.523z" />
<glyph unicode="&#xe903;" glyph-name="criteria" d="M463.531 613.478l-62.669 62.669-68.54-68.54 131.209-131.209 228.147 228.147-68.54 68.54-159.607-159.607zM463.531 274.193l-62.669 62.669-68.54-68.54 131.209-131.209 228.147 228.147-68.54 68.54-159.607-159.607zM802.816 932.693h-581.632c-53.506-0.078-96.861-43.432-96.939-96.931v-775.517c0.078-53.506 43.432-96.861 96.931-96.939h581.64c53.506 0.078 96.861 43.432 96.939 96.931v775.517c-0.078 53.506-43.432 96.861-96.931 96.939h-0.008zM221.184 60.245v775.509h581.632v-775.509z" />
<glyph unicode="&#xe904;" glyph-name="duration" d="M962.56 650.069l-27.307-27.307c-1.365-1.365-2.731-1.365-2.731-2.731l-249.856 247.125c1.365 1.365 1.365 2.731 2.731 4.096l27.307 27.307-61.44 61.44-27.307-27.307c-114.688-116.053-173.397-274.432-161.109-435.541-161.109 12.288-319.488-46.421-435.541-161.109l-27.307-27.307 61.44-61.44 27.307 27.307c1.365 1.365 2.731 1.365 2.731 2.731l249.856-248.491c-1.365-1.365-1.365-2.731-2.731-2.731l-27.307-27.307 61.44-61.44 27.307 27.307c114.688 114.688 173.397 274.432 161.109 434.176 161.109-12.288 319.488 46.421 435.541 161.109l27.307 27.307-61.44 62.805zM861.525 564.053c-25.941-16.384-53.248-31.403-80.555-43.691l-196.608 196.608c12.288 28.672 25.941 54.613 43.691 80.555l233.472-233.472zM472.405 408.405c5.461-45.056 4.096-90.112-4.096-133.803l-129.707 129.707c43.691 8.192 88.747 9.557 133.803 4.096zM162.475 331.947c25.941 17.749 53.248 31.403 80.555 43.691l196.608-196.608c-12.288-28.672-25.941-54.613-43.691-80.555l-233.472 233.472zM551.595 487.595c-5.461 45.056-4.096 90.112 4.096 133.803l129.707-129.707c-43.691-8.192-88.747-9.557-133.803-4.096z" />
<glyph unicode="&#xe905;" glyph-name="experience" d="M846.507 774.315v103.765c0 26.392-21.395 47.787-47.787 47.787v0h-573.44c-26.392 0-47.787-21.395-47.787-47.787v0-103.765c0.225-39.455 16.248-75.124 42.057-101.040l-0.005 0.005 224.87-225.28-224.87-225.28c-25.972-25.741-42.052-61.426-42.052-100.866 0-0.059 0-0.118 0-0.177v0.009-103.765c0-26.392 21.395-47.787 47.787-47.787v0h573.44c26.392 0 47.787 21.395 47.787 47.787v0 103.765c0 0.050 0 0.109 0 0.168 0 39.441-16.080 75.125-42.042 100.856l-0.010 0.010-224.87 225.28 224.87 225.28c25.805 25.91 41.827 61.58 42.052 100.992v0.043zM750.933 121.685v-55.979h-477.867v55.979c-0.003 0.182-0.004 0.397-0.004 0.612 0 12.92 5.217 24.622 13.66 33.114l-0.002-0.002 225.28 225.007 225.28-225.007c8.44-8.489 13.657-20.191 13.657-33.112 0-0.215-0.001-0.43-0.004-0.645v0.033zM750.933 774.315c0.001-0.090 0.001-0.197 0.001-0.304 0-13.060-5.209-24.904-13.664-33.566l0.009 0.010-225.28-224.87-225.28 224.87c-8.445 8.652-13.654 20.496-13.654 33.556 0 0.107 0 0.214 0.001 0.321v-0.016 55.979h477.867zM368.64 113.493l143.36 143.36 143.36-143.36h-286.72z" />
<glyph unicode="&#xe906;" glyph-name="expertise" d="M365.090 388.745c-96.745 0-175.172 78.427-175.172 175.172s78.427 175.172 175.172 175.172c96.697 0 175.094-78.349 175.172-175.028v-0.008c0-96.772-78.411-175.231-175.165-175.309h-0.007zM365.090 651.571c-48.41 0-87.654-39.244-87.654-87.654s39.244-87.654 87.654-87.654c48.41 0 87.654 39.244 87.654 87.654 0 0.048 0 0.096 0 0.144v-0.008c-0.155 48.32-39.323 87.44-87.647 87.518h-0.008zM715.571 38.263h-700.962v43.827c0 154.283 144.179 262.827 350.481 262.827s350.481-108.544 350.481-262.827zM109.227 125.918h511.727c-26.214 79.189-124.109 131.345-255.863 131.345s-229.649-52.156-255.863-131.345zM759.398 545.758l-162.475 162.475 61.986 61.85 100.489-100.352 188.006 188.006 61.986-61.986-249.993-249.993z" />
<glyph unicode="&#xe907;" glyph-name="experts" d="M13.653 448c0.311-261.984 212.606-474.279 474.56-474.59h0.030v95.573c-51.352 0.038-100.292 10.32-144.902 28.912l2.498-0.923v161.246h142.404v94.891h-142.404v189.781h142.404v94.891h-142.404v161.929c42.113 17.669 91.053 27.951 142.39 27.989h0.015v94.891c-261.984-0.311-474.279-212.606-474.59-474.56v-0.030zM250.948 151.996c-36.32 29.463-66.63 64.646-89.955 104.422l-0.976 1.801h90.931zM250.948 353.109h-129.843c-7.977 28.458-12.562 61.139-12.562 94.891s4.585 66.432 13.166 97.453l-0.605-2.562h129.843zM250.948 743.868v-106.086h-90.931c24.293 41.533 54.604 76.673 90.217 105.526l0.714 0.56zM915.456 780.186c0 78.648-63.757 142.404-142.404 142.404s-142.404-63.757-142.404-142.404c0-78.648 63.757-142.404 142.404-142.404v0c78.617 0.078 142.327 63.788 142.404 142.397v0.007zM773.052 732.809c-26.241 0-47.513 21.273-47.513 47.514s21.273 47.514 47.514 47.514c26.241 0 47.514-21.273 47.514-47.514 0-0.048 0-0.096 0-0.144v0.007c-0.078-26.182-21.32-47.377-47.513-47.377 0 0 0 0 0 0v0zM773.052 637.781c-131.088-0.156-237.295-106.459-237.295-237.568 0 0 0 0 0 0v0-141.995c0-0.041 0-0.089 0-0.137 0-26.166 21.211-47.377 47.377-47.377 0 0 0 0 0 0h47.514v-189.918c0 0 0 0 0 0 0-26.166 21.211-47.377 47.377-47.377 0.048 0 0.096 0 0.144 0h189.773c0.041 0 0.089 0 0.137 0 26.166 0 47.377 21.211 47.377 47.377 0 0 0 0 0 0v0 189.918h47.377c26.241 0 47.514 21.273 47.514 47.514v141.995c0 131.109-106.207 237.413-237.28 237.568h-0.015zM915.456 305.596h-47.514c-26.166 0-47.377-21.211-47.377-47.377v0-189.918h-95.573v189.918c0 26.166-21.211 47.377-47.377 47.377v0h-46.967v94.618c0 78.648 63.757 142.404 142.404 142.404s142.404-63.757 142.404-142.404v0z" />
<glyph unicode="&#xe908;" glyph-name="formations" horiz-adv-x="879" d="M745.472 409.771h-617.131l1.365 13.653c0 1.365 8.192 165.205 195.243 174.763-50.517 35.499-83.285 94.208-83.285 162.475 0 109.227 88.747 199.339 199.339 199.339s199.339-88.747 199.339-199.339c0-66.901-34.133-128.341-86.016-163.84 55.979-6.827 187.051-38.229 192.512-173.397l-1.365-13.653zM155.648 435.712h562.517c-5.461 53.248-38.229 92.843-94.208 117.419-40.96 17.749-83.285 20.48-92.843 20.48-87.381-35.499-174.763-5.461-189.781 0-150.187-1.365-180.224-101.035-185.685-137.899zM439.637 934.059c-95.573 0-173.397-77.824-173.397-173.397s77.824-173.397 173.397-173.397 173.397 77.824 173.397 173.397c-1.365 95.573-77.824 173.397-173.397 173.397zM110.592-64c-13.653 0-51.883 6.827-65.536 76.459l-45.056 314.027c0 1.365-6.827 51.883 24.576 86.016 20.48 23.211 53.248 34.133 94.208 32.768l675.84-8.192c31.403-2.731 87.381-24.576 83.285-92.843v-1.365l-45.056-329.045c-1.365-13.653-10.923-79.189-51.883-77.824h-669.013c0 0-1.365 0-1.365 0zM110.592 412.501c-28.672 0-49.152-8.192-62.805-21.845-21.845-24.576-17.749-60.075-17.749-60.075l45.056-312.661c9.557-51.883 32.768-50.517 34.133-50.517h674.475c6.827 0 17.749 25.941 19.115 50.517v0l43.691 327.68c4.096 51.883-46.421 58.709-54.613 58.709l-674.475 8.192c-1.365 0-4.096 0-6.827 0zM512 200.875l-10.923-10.923-96.939-95.573c-2.731-2.731-5.461-2.731-9.557 0l-17.749 19.115c-2.731 2.731-2.731 5.461 0 8.192l79.189 79.189h55.979zM512 200.875l42.325-42.325c2.731-2.731 2.731-6.827 0-9.557l-19.115-19.115c-2.731-2.731-5.461-1.365-8.192 0l-70.997 69.632 55.979 1.365zM368.64 181.76l103.765 103.765c2.731 2.731 5.461 2.731 9.557 0l19.115-19.115c2.731-2.731 2.731-5.461 0-8.192l-77.824-77.824-54.613 1.365zM368.64 181.76l-42.325 42.325c-2.731 2.731-2.731 6.827 0 9.557l19.115 19.115c2.731 2.731 5.461 1.365 8.192 0l69.632-70.997h-54.613z" />
<glyph unicode="&#xe909;" glyph-name="free" d="M790.801 607.334h-39.868v-79.735h39.868v-199.066h-557.602v199.066h39.868v79.735h-39.868c-43.978-0.078-79.599-35.747-79.599-79.735 0 0 0 0 0 0v0-358.4c0.078-43.93 35.669-79.521 79.591-79.599h238.941v-39.868h-119.467v-79.599h318.669v79.599h-119.467v39.868h238.933c43.93 0.078 79.521 35.669 79.599 79.591v358.408c0 0 0 0 0 0 0 43.989-35.621 79.658-79.591 79.735h-0.007zM233.199 169.199v79.735h557.602v-79.735zM699.46 618.94l-56.388 56.252-91.204-91.204v341.879h-79.735v-341.879l-91.341 91.204-56.252-56.252 187.46-187.46 187.46 187.46z" />
<glyph unicode="&#xe90a;" glyph-name="goal" d="M664.917 445.269c0-84.454-68.463-152.917-152.917-152.917s-152.917 68.463-152.917 152.917c0 84.454 68.463 152.917 152.917 152.917s152.917-68.463 152.917-152.917zM1022.635 495.787h-105.131c-24.576 184.32-170.667 330.411-354.987 353.621v106.496h-102.4v-105.131c-182.955-24.576-329.045-170.667-352.256-354.987h-106.496v-102.4h105.131c24.576-184.32 170.667-330.411 354.987-353.621v-105.131h102.4v105.131c182.955 23.211 329.045 169.301 352.256 354.987h105.131v101.035zM512 139.435c-169.301 0-305.835 137.899-305.835 305.835s137.899 305.835 305.835 305.835 305.835-137.899 305.835-305.835-136.533-305.835-305.835-305.835z" />
<glyph unicode="&#xe90b;" glyph-name="independent" horiz-adv-x="880" d="M172.426 800.477c-36.362-65.686-28.151-77.416-28.151-120.816v-175.945c0-8.211 1.173-15.249 3.519-22.286l28.151-45.746c11.73-10.557 25.805-17.595 41.054-21.113 12.903-65.686 53.956-120.816 109.086-152.486v-11.73l-148.967-25.805c-58.648-10.557-106.74-52.784-124.334-111.432l-52.784-177.118h879.725l-52.784 177.118c-17.595 57.475-64.513 99.702-124.334 111.432l-148.967 26.978v11.73c56.302 32.843 96.183 87.973 109.086 152.486 41.054 8.211 72.724 45.746 72.724 89.145v225.21c0 63.34-41.054 118.47-102.048 137.237l-11.73 11.73c-32.843 32.843-71.551 56.302-113.778 69.205l-45.746 9.384c-12.903 1.173-25.805 2.346-38.708 2.346-70.378 0-134.891-26.978-184.156-70.378-16.422-19.94-66.859-89.145-66.859-89.145zM667.418 466.181v78.589c14.076-8.211 22.286-22.286 22.286-38.708s-8.211-31.67-22.286-39.881zM212.307 466.181c-14.076 8.211-22.286 22.286-22.286 38.708s9.384 31.67 22.286 38.708v-77.416zM212.307 618.667v-25.805c-8.211-2.346-15.249-5.865-22.286-9.384v96.183c0 129.026 105.567 234.593 234.593 234.593 62.167 0 121.989-24.632 165.388-69.205l19.94-19.94 5.865-1.173c43.4-10.557 73.897-49.265 73.897-95.010v-146.621c-7.038 3.519-15.249 7.038-22.286 9.384v25.805h-72.724c-62.167 0-120.816 29.324-157.178 78.589l-18.767 24.632-45.746-45.746c-37.535-37.535-86.8-57.475-139.583-57.475l-21.113 1.173zM258.053 459.143v114.951c56.302 4.692 107.913 29.324 148.967 70.378l9.384 9.384c45.746-50.438 111.432-79.762 179.464-79.762h26.978v-114.951c0-100.875-82.108-181.81-181.81-181.81-100.875 0-182.983 82.108-182.983 181.81zM374.176 242.144c21.113-7.038 43.4-9.384 65.686-9.384 23.459 0 45.746 3.519 65.686 9.384zM597.040 196.399l98.529-17.595c42.227-8.211 76.243-37.535 89.145-79.762l35.189-118.47h-758.91l35.189 118.47c11.73 41.054 46.919 71.551 89.145 79.762l98.529 17.595z" />
<glyph unicode="&#xe90c;" glyph-name="match" d="M805.547 13.961h-680.892c-53.733 0.078-97.271 43.616-97.348 97.341v583.824c0.078 53.733 43.616 97.271 97.341 97.348h486.475v-97.348h-486.468v-583.817h680.892v243.302h97.348v-243.302c-0.078-53.733-43.616-97.271-97.341-97.348h-0.007zM467.217 217.805l-239.616 239.616 86.016 86.153 149.504-149.641 443.597 488.107 89.975-81.92-529.476-582.315z" />
<glyph unicode="&#xe90d;" glyph-name="partners" d="M375.467 652.8h91.068v-91.068h-91.068v91.068zM557.466 652.8h91.068v-91.068h-91.068v91.068zM375.467 470.801h91.068v-91.068h-91.068v91.068zM557.466 470.801h91.068v-91.068h-91.068v91.068zM193.468 288.666h91.068v-91.068h-91.068v91.068zM375.467 288.666h91.068v-91.068h-91.068v91.068zM557.466 288.666h91.068v-91.068h-91.068v91.068zM739.601 288.666h91.068v-91.068h-91.068v91.068zM921.6 425.199h-136.533v364.134c0 25.11-20.356 45.466-45.466 45.466v0h-91.068v45.602c0 25.11-20.356 45.466-45.466 45.466v0h-182.135c-25.11 0-45.466-20.356-45.466-45.466v0-45.602h-91.068c-25.11 0-45.466-20.356-45.466-45.466v0-364.134h-136.533c-25.11 0-45.466-20.356-45.466-45.466v0-364.134c0-25.11 20.356-45.466 45.466-45.466v0h819.2c25.11 0 45.466 20.356 45.466 45.466v0 364.134c0 25.11-20.356 45.466-45.466 45.466v0zM876.134 61.201h-273.067v90.931h-182.135v-90.931h-273.067v273.067h136.533c0 0 0 0 0 0 25.137 0 45.524 20.339 45.602 45.458v364.141h90.931c0 0 0 0 0 0 25.137 0 45.524 20.339 45.602 45.458v45.473h90.931v-45.466c0.078-25.127 20.465-45.466 45.602-45.466 0 0 0 0 0 0h90.931v-364.134c0.078-25.127 20.465-45.466 45.602-45.466 0 0 0 0 0 0h136.533z" />
<glyph unicode="&#xe90e;" glyph-name="place" d="M535.211 960c-222.549 0-402.773-180.224-402.773-402.773s233.472-475.136 402.773-621.227c169.301 144.725 402.773 398.677 402.773 621.227s-180.224 402.773-402.773 402.773zM535.211 69.803c-107.861 101.035-301.739 318.123-301.739 486.059 0 166.571 135.168 301.739 301.739 301.739s301.739-135.168 301.739-301.739c1.365-167.936-193.877-385.024-301.739-486.059z" />
<glyph unicode="&#xe90f;" glyph-name="price" d="M107.861 805.717c24.576 20.48 109.227 50.517 200.704 50.517s176.128-30.037 200.704-50.517h105.131c0 114.688-210.261 154.283-307.2 154.283s-307.2-39.595-307.2-154.283v-613.035c0-114.688 210.261-152.917 307.2-152.917 15.019 0 32.768 1.365 50.517 2.731v102.4c-16.384-2.731-32.768-4.096-50.517-4.096-98.304 0-188.416 35.499-204.8 55.979v35.499c66.901-28.672 152.917-39.595 204.8-39.595 15.019 0 32.768 1.365 50.517 2.731v102.4c-16.384-1.365-34.133-2.731-50.517-2.731-99.669 0-189.781 35.499-204.8 55.979v35.499c66.901-28.672 152.917-39.595 204.8-39.595 15.019 0 32.768 1.365 50.517 2.731v102.4c-16.384-1.365-34.133-2.731-50.517-2.731-99.669 0-189.781 35.499-204.8 55.979v35.499c66.901-28.672 152.917-39.595 204.8-39.595 15.019 0 32.768 1.365 50.517 2.731v101.035c-16.384-1.365-34.133-2.731-50.517-2.731-99.669 0-189.781 35.499-204.8 55.979v35.499c66.901-28.672 152.917-39.595 204.8-39.595 15.019 0 32.768 1.365 50.517 2.731v102.4c-16.384-2.731-32.768-4.096-50.517-4.096-91.477 0-176.128 30.037-199.339 50.517zM716.8 703.317c-95.573 0-307.2-38.229-307.2-152.917v-460.117c0-114.688 210.261-154.283 307.2-154.283s307.2 39.595 307.2 154.283v460.117c0 114.688-211.627 152.917-307.2 152.917zM921.6 401.579c-15.019-20.48-105.131-55.979-204.8-55.979s-189.781 35.499-204.8 55.979v35.499c66.901-28.672 152.917-39.595 204.8-39.595s136.533 10.923 204.8 39.595v-35.499zM921.6 248.661c-15.019-20.48-105.131-55.979-204.8-55.979s-189.781 35.499-204.8 55.979v35.499c66.901-28.672 152.917-39.595 204.8-39.595s136.533 10.923 204.8 39.595v-35.499zM716.8 600.917c91.477 0 176.128-30.037 200.704-50.517-24.576-20.48-109.227-50.517-200.704-50.517s-176.128 30.037-200.704 50.517c24.576 20.48 109.227 50.517 200.704 50.517zM716.8 38.4c-98.304 0-188.416 35.499-204.8 55.979v35.499c66.901-28.672 152.917-39.595 204.8-39.595s136.533 10.923 204.8 39.595v-35.499c-16.384-20.48-106.496-55.979-204.8-55.979z" />
<glyph unicode="&#xe910;" glyph-name="professional" horiz-adv-x="835" d="M628.87 845.357v0c-6.678 4.452-13.357 7.791-20.035 12.243-35.617 63.443-100.174 102.4-172.522 102.4h-21.148c-86.817 0-165.843-37.843-220.383-99.061l-25.6-33.391c-31.165-46.748-50.087-103.513-50.087-164.73v-148.035c0-41.183 31.165-75.687 71.235-81.252 13.357-64.557 54.539-119.096 110.191-150.261v-16.696l-84.591-13.357c-61.217-10.017-114.643-46.748-144.696-100.174v0l-14.47-33.391c-1.113-2.226-2.226-5.565-2.226-7.791l-28.939-93.496-25.6-82.365h834.783l-54.539 173.635c-1.113 2.226-2.226 5.565-2.226 7.791l-14.47 33.391c-30.052 52.313-83.478 90.157-144.696 100.174l-84.591 13.357v16.696c55.652 32.278 95.722 86.817 110.191 150.261 40.070 5.565 71.235 40.070 71.235 81.252v172.522c0 47.861-17.809 92.383-46.748 126.887zM560.974 227.617l-26.713-158.052-95.722 83.478 80.139 80.139 42.296-5.565zM414.052 176.417l-82.365 82.365v8.904c25.6-10.017 53.426-15.583 82.365-15.583s56.765 5.565 82.365 15.583v-8.904l-82.365-82.365zM611.061 581.565h-21.148c-5.565 10.017-15.583 16.696-27.826 16.696h-99.061c-17.809 0-33.391-14.47-33.391-33.391h-33.391c0 17.809-14.47 33.391-33.391 33.391h-99.061c-12.243 0-22.261-6.678-27.826-16.696h-21.148v75.687c60.104-17.809 122.435-26.713 185.878-26.713h22.261c63.443 0 125.774 8.904 185.878 26.713l2.226-75.687zM562.087 564.87v-33.391c0-17.809-14.47-33.391-33.391-33.391h-33.391c-17.809 0-33.391 14.47-33.391 33.391v33.391h100.174zM365.078 564.87v-33.391c0-17.809-14.47-33.391-33.391-33.391h-33.391c-17.809 0-33.391 14.47-33.391 33.391v33.391h100.174zM644.452 469.148c0 4.452 1.113 8.904 1.113 13.357v79.026c18.922-6.678 33.391-24.487 33.391-45.635-1.113-22.261-14.47-40.070-34.504-46.748zM150.261 515.896c0 21.148 13.357 40.070 33.391 45.635v-79.026c0-4.452 0-8.904 1.113-13.357-20.035 6.678-34.504 24.487-34.504 46.748zM183.652 702.887v-106.852c-12.243-2.226-23.374-7.791-33.391-15.583v82.365c0 145.809 119.096 263.791 263.791 263.791h21.148c61.217 0 116.87-34.504 144.696-89.043l2.226-5.565 5.565-2.226c55.652-27.826 89.043-83.478 89.043-144.696v-103.513c-10.017 7.791-20.035 12.243-33.391 15.583v106.852l-21.148-6.678c-63.443-21.148-130.226-32.278-197.009-32.278h-22.261c-66.783 0-133.565 11.13-197.009 32.278l-22.261 5.565zM217.043 482.504v65.67h16.696v-16.696c0-35.617 30.052-65.67 65.67-65.67h33.391c35.617 0 65.67 30.052 65.67 65.67h33.391c0-35.617 30.052-65.67 65.67-65.67h33.391c35.617 0 65.67 30.052 65.67 65.67v16.696h16.696v-65.67c0-109.078-87.93-197.009-197.009-197.009-110.191-1.113-199.235 87.93-199.235 197.009zM310.539 234.296l80.139-80.139-95.722-84.591-26.713 158.052 42.296 6.678zM336.139-27.27h-133.565l14.47 112.417-32.278 4.452-14.47-116.87h-129.113l41.183 130.226c18.922 61.217 72.348 106.852 135.791 116.87l15.583 2.226 35.617-217.043 53.426 46.748 22.261-34.504-8.904-44.522zM458.574-27.27h-89.043l13.357 52.313-33.391 50.087 64.557 56.765 64.557-56.765-33.391-50.087 13.357-52.313zM645.565 89.6l-33.391-4.452 14.47-112.417h-132.452l-11.13 45.635 22.261 34.504 53.426-46.748 35.617 217.043 15.583-2.226c63.443-10.017 116.87-55.652 135.791-116.87l41.183-130.226h-125.774l-15.583 115.757z" />
<glyph unicode="&#xe911;" glyph-name="recognition" d="M994.236 51.371l-48.469 145.408c-6.642 19.42-24.72 33.141-46.007 33.178h-48.473v339.149h48.469c26.769 0 48.469 21.7 48.469 48.469v0 96.666c0 0.002 0 0.004 0 0.006 0 20.662-12.892 38.312-31.071 45.347l-0.332 0.113-387.755 145.681c-5.071 1.948-10.937 3.076-17.067 3.076s-11.996-1.128-17.402-3.189l0.335 0.112-387.755-145.408c-18.511-7.147-31.403-24.798-31.403-45.46 0-0.098 0-0.196 0.001-0.294v0.015-96.939c0.155-26.651 21.796-48.196 48.469-48.196 0 0 0.001 0 0.001 0h48.469v-339.149h-48.469c-21.292-0.036-39.369-13.757-45.91-32.836l-0.102-0.342-48.469-145.408c-1.569-4.563-2.475-9.822-2.475-15.292 0-26.769 21.7-48.469 48.469-48.469 0.006 0 0.013 0 0.019 0h872.447c0.005 0 0.012 0 0.018 0 26.769 0 48.469 21.7 48.469 48.469 0 5.47-0.906 10.728-2.576 15.633l0.101-0.341zM754.347 229.956h-96.939v339.149h96.939zM560.469 569.105v-339.149h-96.256v339.149zM172.715 680.926l339.285 127.249 339.285-127.249v-14.882h-678.571zM269.653 569.105h96.939v-339.149h-96.939zM143.087 84.548l16.111 48.469h705.604l16.111-48.469z" />
<glyph unicode="&#xe912;" glyph-name="result" d="M888.832-23.040h-753.664c-51.998 0.078-94.13 42.21-94.208 94.201v423.26c-0.003 0.207-0.005 0.452-0.005 0.698 0 26.015 21.089 47.104 47.104 47.104 11.517 0 22.068-4.133 30.252-10.997l-0.073 0.060 269.517-224.597h248.491l269.517 224.597c8.11 6.802 18.659 10.933 30.174 10.933 26.015 0 47.104-21.089 47.104-47.104 0-0.004 0-0.007 0-0.011v0.001-423.936c-0.078-51.998-42.21-94.13-94.201-94.208h-0.007zM135.168 394.479v-323.311h753.801v323.311l-205.483-171.759c-8.073-6.794-18.586-10.923-30.062-10.923-0.039 0-0.078 0-0.118 0h-282.618c-0.033 0-0.072 0-0.112 0-11.477 0-21.989 4.128-30.133 10.981l0.071-0.058zM888.832 589.312h-94.208v235.52h-565.248v-235.52h-94.208v329.728h753.664v-329.728zM471.996 403.627l-167.936 167.799 64.034 64.034 103.902-103.765 194.423 194.423 64.034-64.034-258.458-258.458z" />
<glyph unicode="&#xe913;" glyph-name="school" horiz-adv-x="726" d="M676.537 283.463v106.465l-45.49-17.422-0.968 1.936c-17.422 27.1-45.49 45.49-76.461 51.297l-108.401 19.357v8.711c40.65 23.229 70.654 63.879 79.365 111.304 30.004 5.807 53.233 32.907 53.233 64.847v162.601c0 46.457-30.004 86.14-74.526 99.69l-7.743 7.743c-38.715 38.715-90.011 60.008-144.212 60.008-112.272 0-203.251-90.979-203.251-203.251v-127.758c0-31.94 22.261-58.072 53.233-64.847 9.679-47.425 38.715-88.076 79.365-111.304v-7.743l-108.401-19.357c-30.972-5.807-59.040-24.197-76.461-51.297l-0.968-2.904-46.457 17.422v-106.465c-26.132 0.968-48.393-21.293-48.393-48.393v-65.815c0-27.1 22.261-49.361 49.361-49.361v-60.975l314.556-121.951 313.588 121.951v60.975c27.1 0 49.361 22.261 49.361 49.361v64.847c-0.968 27.1-23.229 50.329-50.329 50.329zM476.189 406.382l71.622-12.582c21.293-3.871 39.682-15.486 52.265-32.907l-159.698-61.943 35.811 107.433zM315.524 439.289c15.486-4.839 30.972-6.775 48.393-6.775s32.907 2.904 48.393 6.775l-48.393-35.811-48.393 35.811zM337.784 380.25l-33.875-33.875-22.261 65.815 10.647 1.936 45.49-33.875zM432.635 414.125l10.647-1.936-22.261-65.815-33.875 33.875 45.49 33.875zM527.486 600.922v57.104c9.679-5.807 16.454-16.454 16.454-28.068 0-12.582-5.807-23.229-16.454-29.036zM198.412 600.922c-9.679 5.807-16.454 16.454-16.454 28.068s6.775 22.261 16.454 28.068v-56.136zM198.412 712.227v-19.357c-5.807-1.936-11.614-3.871-16.454-6.775v70.654c0 93.883 76.461 170.344 170.344 170.344 45.49 0 88.076-17.422 120.015-50.329l14.518-14.518 4.839-0.968c31.94-7.743 53.233-35.811 53.233-68.718v-106.465c-4.839 2.904-10.647 4.839-16.454 6.775v19.357h-52.265c-44.522 0-88.076 21.293-114.208 57.104l-13.55 17.422-32.907-32.907c-27.1-27.1-62.911-41.618-101.626-41.618h-15.486zM231.319 597.051v82.268c40.65 3.871 78.397 21.293 108.401 50.329l6.775 6.775c32.907-36.779 81.301-58.072 130.662-58.072h19.357v-82.268c0-72.59-59.040-132.597-132.597-132.597s-132.597 60.975-132.597 133.565zM178.087 392.832l71.622 12.582 35.811-108.401-159.698 61.943c12.582 18.389 30.972 30.972 52.265 33.875zM32.907 167.319v65.815c0 9.679 7.743 16.454 16.454 16.454 27.1 0 49.361-22.261 49.361-49.361s-22.261-49.361-49.361-49.361c-9.679 0-16.454 6.775-16.454 16.454zM346.495-23.35l-264.227 102.594v45.49c29.036 12.582 49.361 41.618 49.361 75.493s-20.325 62.911-49.361 75.493v65.815l264.227-102.594v-262.291zM298.102 293.142l65.815 65.815 65.815-65.815-65.815-25.164-65.815 25.164zM643.629 79.244l-264.227-102.594v261.323l264.227 102.594v-65.815c-29.036-12.582-49.361-41.618-49.361-75.493s20.325-62.911 49.361-75.493v-44.522zM692.991 167.319c0-9.679-7.743-16.454-16.454-16.454-27.1 0-49.361 22.261-49.361 49.361s22.261 49.361 49.361 49.361c9.679 0 16.454-7.743 16.454-16.454v-65.815z" />
<glyph unicode="&#xe914;" glyph-name="target" d="M512 448c-140.629 0-255.317 114.688-255.317 255.317s114.688 256.683 255.317 256.683 255.317-114.688 255.317-255.317-114.688-256.683-255.317-256.683zM512 831.659c-70.997 0-128.341-57.344-128.341-128.341s57.344-128.341 128.341-128.341 128.341 57.344 128.341 128.341c0 70.997-57.344 128.341-128.341 128.341zM1024-64h-1024v64.171c0 226.645 210.261 383.659 512 383.659s512-157.013 512-383.659v-64.171zM137.899 64.341h746.837c-38.229 116.053-181.589 192.512-374.101 192.512s-334.507-76.459-372.736-192.512z" />
<glyph unicode="&#xe915;" glyph-name="trainers" d="M634.197 325.803c-0.064 0-0.139-0.001-0.214-0.001-6.602 0-12.827 1.616-18.3 4.474l0.219-0.104c-13.338 6.89-22.315 20.547-22.391 36.307v81.93h-40.96v81.92h81.92c22.622 0 40.96-18.338 40.96-40.96v0-40.96l97.758 73.318c6.725 5.088 15.22 8.16 24.432 8.192h122.204v284.672h-407.825v-122.88h-81.92v122.88c0 45.243 36.677 81.92 81.92 81.92v0h407.279c45.243 0 81.92-36.677 81.92-81.92v0-285.082c0-45.243-36.677-81.92-81.92-81.92v0h-108.544l-152.098-113.596c-6.725-5.088-15.22-8.16-24.432-8.192h-0.007zM349.116 325.803c-89.958 0-162.884 72.926-162.884 162.884s72.926 162.884 162.884 162.884c89.958 0 162.884-72.926 162.884-162.884v0c-0.078-89.927-72.957-162.807-162.877-162.884h-0.007zM349.116 570.197c-45.243 0-81.92-36.677-81.92-81.92s36.677-81.92 81.92-81.92c45.243 0 81.92 36.677 81.92 81.92v0c0 45.243-36.677 81.92-81.92 81.92v0zM674.884 0.034h-651.674v40.96c0 143.906 134.076 244.395 325.905 244.395s325.769-100.489 325.769-244.395zM111.138 81.954h475.955c-24.439 72.499-115.507 121.651-237.978 121.651s-213.538-49.152-237.978-122.197z" />
<glyph unicode="&#xe916;" glyph-name="trainings" d="M156.331 47.002h-45.329c-49.979 0.155-90.444 40.668-90.522 90.651v407.559c0.078 49.962 40.559 90.444 90.514 90.522h407.832v-90.522h-407.825v-407.552h588.732v271.701h90.658v-271.701c-0.078-50.038-40.62-90.581-90.651-90.658h-543.41zM745.062 526.507l-167.936 167.799 64.171 64.034 103.765-103.765 194.423 194.423 64.034-64.034-258.458-258.458z" />
</font>
</defs>
</svg>
